# xmcd
#
# Track frame offsets:
#	150
#	23925
#	39604
#	55320
#	72795
#	90686
#	108438
#	124417
#	180149
#	195546
#	211842
#
# Disc length: 3050 seconds
#
# Revision: 0
# Processed by: cddbd v1.5.2PL0 Copyright (c) Steve Scherf et al.
# Submitted via: EasyCDDAExtractor 9.0.0.1
#
DISCID=930be80b
DTITLE=Kiss - Bröndbyhallen Copenhagen 11-10-80 Disc 1
DYEAR=1980
DGENRE=Hard Rock
TTITLE0=Detroit Rock City
TTITLE1=Cold Gin
TTITLE2=Strutter
TTITLE3=Calling Dr Love
TTITLE4=Firehouse
TTITLE5=Talk To Me
TTITLE6=Is That You
TTITLE7=2000 man
TTITLE8=I Was Made For Loving You
TTITLE9=New York Groove
TTITLE10=Love Gun
EXTD=
EXTT0=
EXTT1=
EXTT2=
EXTT3=
EXTT4=
EXTT5=
EXTT6=
EXTT7=
EXTT8=
EXTT9=
EXTT10=
PLAYORDER=
